<?xml version="1.0" encoding="iso-8859-1"?>
<!-- Generator: Adobe Illustrator 21.0.2, SVG Export Plug-In . SVG Version: 6.00 Build 0)  -->
<svg version="1.1" xmlns="http://www.w3.org/2000/svg" xmlns:xlink="http://www.w3.org/1999/xlink" x="0px" y="0px"
	 viewBox="0 0 512 512" style="enable-background:new 0 0 512 512;" xml:space="preserve">
<g id="&#x30B4;&#x30DF;" style="display:none;">
</g>
<g id="ToDo">
	<g>
		<path style="fill:#787878;" d="M112.5,413.6c-6.2,0-12.2-2.6-16.4-7.1l-85.6-91.4c-8.5-9.1-8-23.3,1-31.8c9.1-8.5,23.3-8,31.8,1
			l68,72.6l202.7-250.2c7.8-9.7,22-11.1,31.6-3.3c9.7,7.8,11.1,22,3.3,31.6L130,405.3c-4.1,5.1-10.2,8.1-16.7,8.3
			C113,413.6,112.7,413.6,112.5,413.6z"/>
		<path style="fill:#787878;" d="M485.2,214.2h-81.3c-12.4,0-22.5-10.1-22.5-22.5s10.1-22.5,22.5-22.5h81.3
			c12.4,0,22.5,10.1,22.5,22.5S497.6,214.2,485.2,214.2z"/>
		<path style="fill:#787878;" d="M485.2,310.9H315.1c-12.4,0-22.5-10.1-22.5-22.5c0-12.4,10.1-22.5,22.5-22.5h170.1
			c12.4,0,22.5,10.1,22.5,22.5C507.6,300.9,497.6,310.9,485.2,310.9z"/>
		<path style="fill:#787878;" d="M485.2,411.4H248.5c-12.4,0-22.5-10.1-22.5-22.5c0-12.4,10.1-22.5,22.5-22.5h236.7
			c12.4,0,22.5,10.1,22.5,22.5C507.6,401.3,497.6,411.4,485.2,411.4z"/>
	</g>
</g>
</svg>
